<?xml version="1.0" encoding="UTF-8"?>
<svg version="1.1" viewBox="0 0 2000 1247" xmlns="http://www.w3.org/2000/svg">
<g transform="translate(-1.2121 .61593)">
<svg width="2e3" height="1247" data-background-color="#edbbba" viewBox="0 0 396 247" xmlns="http://www.w3.org/2000/svg" xmlns:xlink="http://www.w3.org/1999/xlink">
<g transform="translate(.24 -.1)">
<svg width="395.52" height="247.2" viewBox="0 0 395.52 247.2">
<svg/>
<svg width="395.52" height="247.2" viewBox="0 0 395.52 247.2">
<path d="m181.16 218.44-32.842 28.781-44.42-35.885c-3.704 0.404-7.503 0.606-11.4 0.606-17.872 0-33.693-4.139-47.464-12.418-13.81-8.24-24.602-20.038-32.378-35.395-1.791-3.538-3.376-7.235-4.755-11.091h56.343c2.114 3.446 4.588 6.331 7.423 8.654 5.57 4.603 12.514 6.905 20.831 6.905 7.93 0 14.622-2.302 20.077-6.905 2.796-2.323 5.251-5.208 7.365-8.654h56.575c-1.379 3.856-2.964 7.553-4.755 11.091-5.912 11.62-13.508 21.202-22.786 28.747zm-168.56-170.48c7.737-15.357 18.471-27.194 32.204-35.511s29.535-12.475 47.406-12.476c17.64 0 33.345 4.158 47.116 12.476 13.733 8.317 24.506 20.154 32.32 35.511 6.749 13.199 10.598 28.597 11.546 46.196h-53.959c-0.517-9.317-1.911-17.366-4.181-24.147-2.901-8.82-7.118-15.435-12.649-19.844-5.532-4.449-12.263-6.673-20.193-6.673-8.317 0-15.241 2.224-20.773 6.673-5.532 4.41-9.651 11.025-12.359 19.844-2.121 6.78-3.423 14.829-3.906 24.147h-53.948c0.935-17.599 4.726-32.998 11.376-46.196zm213.76-45.143h82.395c16.17 0 30.154 2.398 41.952 7.195 11.798 4.758 20.908 11.76 27.33 21.005 6.421 9.245 9.632 20.715 9.632 34.408 0 11.456-1.577 21.032-4.73 28.731h-62.302c0.771-0.281 1.511-0.593 2.218-0.937 3.946-1.895 6.886-4.7 8.82-8.414 1.934-3.752 2.901-8.356 2.901-13.809 0-7.93-2.186-14.119-6.557-18.568-4.333-4.449-10.754-6.673-19.264-6.673h-29.302v48.401h-53.093zm168.16 204.01v2.263h-56.98l-27.619-56.06h57.156zm-115.06 2.263h-53.093v-56.06h53.093z" fill="#fff" data-fill-palette-color="tertiary"/>
<g transform="translate(0 100.81)">
<svg width="395.52" height="45.577" viewBox="0 0 395.52 45.57668426610348">
<svg width="395.52" height="45.577" viewBox="0 0 395.52 45.57668426610348">
<svg width="395.52" height="45.577" viewBox="0 0 395.52 45.57668426610348">
<svg width="395.52" height="45.577" viewBox="0 0 395.52 45.57668426610348">
<svg width="395.52" height="45.577" viewBox="0 0 395.52 45.57668426610348">
<svg width="395.52" height="45.577" viewBox="0 0 395.52 45.57668426610348">
<g>
<svg width="395.52" height="45.577" data-palette-color="#374151" viewBox="1.64 -36.06 369.89 42.63000000000001">
<path class="undefined-text-0" d="m22.58-6.42 10.11 8.03-5.66 4.96-9.94-8.03 5.49-4.96zm10.5-11.87v1.05q0 5.52-2.01 9.49-2.02 3.97-5.56 6.1-3.54 2.14-8.1 2.14-4.62 0-8.18-2.14-3.57-2.13-5.58-6.1t-2.01-9.49v-1.05q0-5.51 2-9.48t5.55-6.12 8.17-2.15q4.56 0 8.12 2.15 3.55 2.15 5.57 6.12 2.03 3.97 2.03 9.48zm-9.3 1.05v-1.09q0-3.37-0.76-5.64-0.75-2.28-2.18-3.42-1.43-1.15-3.48-1.15-2.15 0-3.58 1.15-1.43 1.14-2.13 3.42-0.71 2.27-0.71 5.64v1.09q0 3.3 0.72 5.59 0.72 2.3 2.16 3.48 1.44 1.19 3.59 1.19 2.05 0 3.46-1.19 1.42-1.18 2.16-3.48 0.75-2.29 0.75-5.59zm32.39-18.31h9.16v23.03q0 4.19-1.75 7.1-1.74 2.91-4.9 4.41t-7.44 1.5q-4.22 0-7.43-1.5t-4.99-4.41q-1.79-2.91-1.79-7.1v-23.03h9.21v23.03q0 2.02 0.56 3.27 0.56 1.24 1.68 1.8 1.13 0.57 2.76 0.57 1.66 0 2.75-0.57 1.09-0.56 1.63-1.8 0.55-1.25 0.55-3.27v-23.03zm23.88 0v35.55h-9.13v-35.55h9.13zm25.61 23.32h9.13q-0.15 3.76-2 6.63-1.86 2.87-5.14 4.48-3.29 1.61-7.73 1.61-4.81 0-8.23-2.11-3.42-2.12-5.21-6.05-1.8-3.93-1.8-9.37v-1.44q0-5.47 1.88-9.4t5.27-6.06q3.38-2.12 7.94-2.12 4.74 0 7.97 1.71 3.24 1.71 5.01 4.66 1.77 2.96 2.09 6.67h-9.13q-0.05-2.79-1.35-4.15-1.29-1.37-4.59-1.37-1.97 0-3.26 0.94-1.28 0.94-1.9 3.12-0.62 2.19-0.62 5.95v1.49q0 3.78 0.55 5.97 0.55 2.18 1.85 3.11 1.31 0.93 3.53 0.93 1.83 0 3.1-0.54t1.94-1.68q0.67-1.15 0.7-2.98zm22.02-23.32v35.55h-9.18v-35.55h9.18zm21.11 0-13.59 18.39-8.13 8.98-1.71-8.71 5.05-8.09 7.08-10.57h11.3zm-10.93 35.55-8.55-15.6 7.13-5.35 12.26 20.95h-10.84zm25.16-35.55h14.21q4.18 0 7.23 1.24 3.05 1.23 4.71 3.62t1.66 5.93q0 3.18-0.94 5.24t-2.61 3.37-3.92 2.23l-3 1.84h-11.6l-0.05-7.4h8.42q1.52 0 2.53-0.49t1.51-1.45q0.5-0.97 0.5-2.38 0-2.05-1.12-3.2t-3.32-1.15h-5.05v28.15h-9.16v-35.55zm19.17 35.55-7.72-15.65 9.72-0.07 7.81 15.33v0.39h-9.81zm38.15-7.37v7.37h-18.77v-7.37h18.77zm-15.52-28.18v35.55h-9.18v-35.55h9.18zm13.11 13.77v7.11h-16.36v-7.11h16.36zm2.49-13.77v7.4h-18.85v-7.4h18.85zm18.01 26.39 7.06-26.39h10.25l-11.86 35.55h-6.62l1.17-9.16zm-6.15-26.39 7.01 26.39 1.24 9.16h-6.66l-11.8-35.55h10.21zm35.47 0v35.55h-9.13v-35.55h9.13zm30.3 28.18v7.37h-18.78v-7.37h18.78zm-15.53-28.18v35.55h-9.18v-35.55h9.18zm13.11 13.77v7.11h-16.36v-7.11h16.36zm2.49-13.77v7.4h-18.85v-7.4h18.85zm11.33 33.87 6.98-33.87h4.42l2.68 1.44-7.44 34.11h-4.94l-1.7-1.68zm-1.15-33.87 5.86 34.23-1.88 1.32h-5.69l-7.4-35.55h9.11zm18.28 34.04 5.84-34.04h9.06l-7.38 35.55h-5.69l-1.83-1.51zm-2.41-34.04 7.17 34.09-1.8 1.46h-4.93l-7.62-34.16 2.78-1.39h4.4zm47.36 28.18v7.37h-25.83v-7.37h25.83zm-0.12-23.42-21.12 30.79h-6.64v-4.88l21.38-30.67h6.38v4.76zm-2.93-4.76v7.4h-25.05v-7.4h25.05z" fill="#fff" data-fill-palette-color="primary"/>
</svg>
</g>
</svg>
</svg>
</svg>
</svg>
</svg>
</svg>
</g>
</svg>
</svg>
<rect width="395.52" height="247.2" fill="none" visibility="hidden"/>
</g>
</svg>
</g>
</svg>
